{"title":"Hitman Agent 47 2015 720p HDRip KORSUB x264 AAC2.0-RARBG","uid":12612946,"size":2662423323,"categoryP":"video","categoryS":"hd___movies","magnet":"?xt=urn:btih:cc474d1820628757f32c36237d2fd10254ce7738&amp;dn=Hitman+Agent+47+2015+720p+HDRip+KORSUB+x264+AAC2.0-RARBG&amp;tr=udp%3A%2F%2Ftracker.leechers-paradise.org%3A6969&amp;tr=udp%3A%2F%2Fzer0day.ch%3A1337&amp;tr=udp%3A%2F%2Fopen.demonii.com%3A1337&amp;tr=udp%3A%2F%2Ftracker.coppersurfer.tk%3A6969&amp;tr=udp%3A%2F%2Fexodus.desync.com%3A6969","seeders":2,"leechers":5,"uploader":"TheRival","files":4,"time":1445483498,"description":"Screens:  \nhttp://extraimago.com/image/Unm  \nhttp://extraimago.com/image/Uni  \nhttp://extraimago.com/image/Unl  \nhttp://extraimago.com/image/UnI  \nhttp://extraimago.com/image/Und  \nhttp://extraimago.com/image/Unh\r\n\r\nVideo\r\nID                                       : 1\r\nFormat                                   : AVC\r\nFormat/Info                              : Advanced Video Codec\r\nFormat profile                           :   \r\nFormat settings, CABAC                   : Yes\r\nFormat settings, ReFrames                : 4 frames\r\nCodec ID                                 : avc1\r\nCodec ID/Info                            : Advanced Video Coding\r\nDuration                                 : 1h 36mn\r\nBit rate                                 : 3 500 Kbps\r\nWidth                                    : 1 280 pixels\r\nHeight                                   : 712 pixels\r\nDisplay aspect ratio                     : 16:9\r\nFrame rate mode                          : Constant\r\nFrame rate                               : 24.000 fps\r\nColor space                              : YUV\r\nChroma subsampling                       : 4:2:0\r\nBit depth                                : 8 bits\r\nScan type                                : Progressive\r\nBits/(Pixel*Frame)                       : 0.160\r\nStream size                              : 2.32 GiB (94%)\r\nTitle                                    : Hitman.Agent.47.2015.720p.HDRip.KORSUB.x264.AAC2.0-RARBG\r\nWriting library                          : x264 core 146 r2555 0c21480\r\nEncoding settings                        : cabac=1 / ref=4 / deblock=1:-2:-2 / analyse=0x3:0x113 / me=umh / subme=7 / psy=1 / psy_rd=1.00:0.15 / mixed_ref=1 / me_range=16 / chroma_me=1 / trellis=2 / 8x8dct=1 / cqm=0 / deadzone=21,11 / fast_pskip=1 / chroma_qp_offset=-3 / threads=8 / lookahead_threads=2 / sliced_threads=0 / nr=0 / decimate=1 / interlaced=0 / bluray_compat=0 / constrained_intra=0 / bframes=3 / b_pyramid=2 / b_adapt=2 / b_bias=0 / direct=3 / weightb=1 / open_gop=0 / weightp=2 / keyint=250 / keyint_min=25 / scenecut=40 / intra_refresh=0 / rc_lookahead=50 / rc=abr / mbtree=1 / bitrate=3500 / ratetol=1.0 / qcomp=0.60 / qpmin=0 / qpmax=69 / qpstep=4 / vbv_maxrate=31250 / vbv_bufsize=31250 / nal_hrd=none / filler=0 / ip_ratio=1.40 / aq=1:1.00\r\n\r\nAudio\r\nID                                       : 2\r\nFormat                                   : AAC\r\nFormat/Info                              : Advanced Audio Codec\r\nFormat profile                           : LC\r\nCodec ID                                 : 40\r\nDuration                                 : 1h 36mn\r\nDuration_LastFrame                       : 46ms\r\nBit rate mode                            : Variable\r\nBit rate                                 : 224 Kbps\r\nMaximum bit rate                         : 31.3 Mbps\r\nChannel(s)                               : 2 channels\r\nChannel positions                        : Front: L R\r\nSampling rate                            : 44.1 KHz\r\nCompression mode                         : Lossy\r\nStream size                              : 154 MiB (6%)","torrent":{"xt":"urn:btih:cc474d1820628757f32c36237d2fd10254ce7738","amp;dn":"Hitman+Agent+47+2015+720p+HDRip+KORSUB+x264+AAC2.0-RARBG","amp;tr":["udp%3A%2F%2Ftracker.leechers-paradise.org%3A6969","udp%3A%2F%2Fzer0day.ch%3A1337","udp%3A%2F%2Fopen.demonii.com%3A1337","udp%3A%2F%2Ftracker.coppersurfer.tk%3A6969","udp%3A%2F%2Fexodus.desync.com%3A6969"],"infoHash":"cc474d1820628757f32c36237d2fd10254ce7738","infoHashBuffer":{"type":"Buffer","data":[204,71,77,24,32,98,135,87,243,44,54,35,125,47,209,2,84,206,119,56]},"announce":[],"urlList":[]}}